<?xml version="1.0" encoding="iso-8859-1"?>
<!-- Generator: Adobe Illustrator 16.0.0, SVG Export Plug-In . SVG Version: 6.00 Build 0)  -->
<!DOCTYPE svg PUBLIC "-//W3C//DTD SVG 1.1//EN" "http://www.w3.org/Graphics/SVG/1.1/DTD/svg11.dtd">
<svg version="1.1" id="Capa_1" xmlns="http://www.w3.org/2000/svg" xmlns:xlink="http://www.w3.org/1999/xlink" x="0px" y="0px"
	 width="48.748px" height="48.748px" viewBox="0 0 48.748 48.748" style="enable-background:new 0 0 48.748 48.748;"
	 xml:space="preserve">
<g>
	<path d="M46.193,13.532l0.008-0.358c-0.01,0-0.076-0.001-0.191-0.001C41.945,5.355,33.775,0,24.374,0C10.934,0,0,10.934,0,24.374
		c0,13.44,10.934,24.374,24.374,24.374c13.44,0,24.374-10.934,24.374-24.374C48.748,20.48,47.825,16.8,46.193,13.532z
		 M40.062,31.857c1.192,2.953,1.528,5.455,1.053,7.336c-1.172,1.322-2.496,2.503-3.946,3.519c-0.416,0.067-0.856,0.106-1.331,0.106
		c-1.842,0-3.986-0.524-6.273-1.473c1.959-1.609,4.002-3.47,5.879-5.543c1.447-1.596,2.841-3.31,4.145-5.011
		C39.751,31.146,39.921,31.506,40.062,31.857z M34.704,35.131c-1.968,2.171-4.121,4.113-6.161,5.764
		c-1.743-0.805-3.551-1.84-5.365-3.082c1.4-1.92,2.811-4.056,4.075-6.323c3.603-1.279,7.119-2.958,10.2-4.625
		c0.621,0.978,1.167,1.95,1.652,2.913C37.732,31.591,36.246,33.43,34.704,35.131z M14.809,44.596
		c0.727-1.799,2.056-5.346,3.125-9.606c1.259,1.104,2.543,2.124,3.835,3.048c-2.393,3.188-4.655,5.678-5.934,7.014
		C15.489,44.907,15.146,44.756,14.809,44.596z M2.672,29.812l0.198,0.246c0.049-0.041,2.631-2.112,6.536-4.677
		c0.632,0.941,1.307,1.882,2.045,2.814c-0.455,1.879-0.842,3.675-1.168,5.325c-2.946,0.147-5.234,0.1-6.292,0.062
		C3.445,32.378,3,31.119,2.672,29.812z M6.024,11.595c0.759-1.086,1.607-2.105,2.542-3.04c0.768-0.336,1.665-0.526,2.72-0.526
		c1.701,0,3.66,0.448,5.749,1.261c0.136,0.667,0.271,1.368,0.4,2.098c-1.533,3.09-3.039,6.566-4.138,10.095
		c-0.039,0.126-0.077,0.251-0.115,0.377c-1.24,0.725-2.407,1.448-3.494,2.147c-1.079-1.696-1.966-3.384-2.626-5.019
		C5.858,16.007,5.526,13.482,6.024,11.595z M24.374,2c3.538,0,6.885,0.829,9.862,2.297l-0.084-0.009
		c-0.008,0.073-0.483,4.454-1.803,10.162c-1.25,0.232-2.529,0.507-3.815,0.832c-2.938-2.49-6.001-4.518-8.919-5.941
		c1.74-3.258,3.373-5.873,4.321-7.33C24.082,2.008,24.227,2,24.374,2z M16.701,32.5c-1.517-1.47-2.903-3.001-4.158-4.553
		c0.433-1.756,0.925-3.578,1.481-5.418c1.414-0.818,2.911-1.629,4.457-2.397c0.064,1.192,0.095,2.396,0.078,3.595
		c-0.045,3.074-0.51,6.207-1.143,9.103c-0.105,0.016-0.21,0.029-0.316,0.045C16.967,32.749,16.832,32.628,16.701,32.5z
		 M19.153,10.214c2.666,1.299,5.471,3.138,8.191,5.383c-1.603,0.443-3.203,0.965-4.753,1.584c-1.083,0.433-2.154,0.911-3.21,1.407
		c-0.195-2.482-0.527-4.881-0.904-7.049C18.702,11.089,18.928,10.647,19.153,10.214z M18.179,9.921
		c-0.011-0.056-0.022-0.114-0.033-0.17c0.032,0.014,0.065,0.03,0.098,0.045C18.223,9.838,18.201,9.879,18.179,9.921z M18.413,19.049
		c-1.362,0.667-2.683,1.369-3.951,2.083c0.907-2.783,2.056-5.522,3.258-8.046C18.015,14.963,18.264,16.98,18.413,19.049z
		 M18.242,33.714c2.492-0.396,5.08-0.958,7.585-1.749c-1.099,1.878-2.284,3.654-3.465,5.271c-1.401-1.004-2.798-2.123-4.162-3.346
		C18.214,33.832,18.228,33.773,18.242,33.714z M28.395,26.943c-0.545,1.27-1.162,2.516-1.824,3.727
		c-2.646,0.916-5.42,1.555-8.095,1.995c0.604-2.851,1.04-5.913,1.084-8.922c0.02-1.364-0.02-2.733-0.103-4.086
		c1.151-0.549,2.322-1.073,3.506-1.546c1.729-0.691,3.522-1.259,5.312-1.729c0.727,0.629,1.445,1.281,2.151,1.965
		c0.25,0.243,0.485,0.492,0.728,0.737C30.408,21.679,29.497,24.372,28.395,26.943z M31.956,19.896
		c1.894,1.992,3.549,4.063,4.94,6.134c-2.723,1.469-5.783,2.944-8.938,4.136c0.481-0.93,0.942-1.869,1.354-2.828
		C30.357,24.902,31.229,22.363,31.956,19.896z M31.121,17.628c-0.549-0.532-1.107-1.042-1.67-1.542
		c0.89-0.213,1.773-0.404,2.646-0.572c-0.195,0.802-0.406,1.624-0.635,2.461C31.348,17.86,31.238,17.742,31.121,17.628z
		 M18.706,8.92c-0.268-0.12-0.534-0.238-0.798-0.347c-0.467-2.229-0.932-4.042-1.25-5.201c1.909-0.704,3.94-1.148,6.051-1.304
		C21.719,3.618,20.252,6.02,18.706,8.92z M16.793,8.139c-1.989-0.719-3.859-1.11-5.507-1.11c-0.4,0-0.768,0.042-1.135,0.085
		c1.671-1.379,3.545-2.521,5.571-3.373C16.003,4.771,16.393,6.291,16.793,8.139z M12.758,23.278
		c-0.361,1.242-0.693,2.471-0.998,3.674c-0.538-0.703-1.042-1.408-1.516-2.114C11.037,24.328,11.88,23.805,12.758,23.278z
		 M12.25,29.162c1.103,1.322,2.296,2.624,3.583,3.883c-1.592,0.197-3.116,0.33-4.519,0.418
		C11.584,32.113,11.895,30.668,12.25,29.162z M16.764,33.932c0.11,0.103,0.218,0.207,0.329,0.308c-1.06,4.37-2.43,8.042-3.179,9.905
		c-1.412-0.75-2.734-1.647-3.946-2.67c0.199-1.485,0.567-3.961,1.149-6.998C12.844,34.373,14.756,34.204,16.764,33.932z
		 M22.584,38.614c1.711,1.17,3.423,2.172,5.085,2.972c-3.084,2.412-5.785,4.105-7.024,4.846c-1.309-0.221-2.58-0.553-3.802-0.99
		C18.182,44.023,20.325,41.625,22.584,38.614z M38.33,26.384c2.09-1.159,3.945-2.288,5.458-3.254
		c-1.104,1.683-2.479,3.687-4.019,5.763C39.333,28.061,38.861,27.225,38.33,26.384z M37.775,25.549
		c-1.529-2.29-3.385-4.573-5.502-6.755c0.332-1.191,0.631-2.357,0.898-3.479c4.658-0.821,8.814-1.057,11.116-1.121
		c0.831,1.618,1.469,3.35,1.886,5.165c-0.258,0.427-0.609,0.998-1.058,1.709C43.419,22.206,40.844,23.851,37.775,25.549z
		 M43.752,13.213c-2.334,0.082-6.109,0.329-10.335,1.047c1.058-4.664,1.552-8.382,1.688-9.512
		C38.704,6.724,41.7,9.663,43.752,13.213z M4.811,13.534c0.021,1.702,0.449,3.66,1.324,5.829c0.683,1.693,1.6,3.438,2.715,5.189
		c-3.285,2.158-5.622,3.952-6.348,4.522C2.176,27.559,2,25.986,2,24.374C2,20.443,3.023,16.748,4.811,13.534z M4.484,34.6
		c0.483,0.012,1.095,0.022,1.823,0.022c1.05,0,2.337-0.022,3.781-0.091c-0.481,2.533-0.812,4.664-1.02,6.14
		C7.216,38.93,5.661,36.878,4.484,34.6z M22.213,46.643c1.536-0.963,3.893-2.535,6.48-4.592c2.445,1.069,4.752,1.68,6.76,1.749
		c-3.27,1.873-7.051,2.949-11.08,2.949C23.645,46.748,22.924,46.71,22.213,46.643z M42.331,37.705
		c0.047-1.787-0.397-3.889-1.34-6.221c-0.214-0.529-0.455-1.063-0.712-1.603c2.318-3.096,4.275-6.059,5.568-8.101
		c0.248-0.167,0.479-0.325,0.687-0.466c0.137,1.001,0.214,2.021,0.214,3.059C46.748,29.365,45.104,33.979,42.331,37.705z"/>
</g>
<g>
</g>
<g>
</g>
<g>
</g>
<g>
</g>
<g>
</g>
<g>
</g>
<g>
</g>
<g>
</g>
<g>
</g>
<g>
</g>
<g>
</g>
<g>
</g>
<g>
</g>
<g>
</g>
<g>
</g>
</svg>
