<?xml version="1.0" encoding="iso-8859-1"?>
<!-- Generator: Adobe Illustrator 19.0.0, SVG Export Plug-In . SVG Version: 6.00 Build 0)  -->
<svg version="1.1" id="Layer_1" xmlns="http://www.w3.org/2000/svg" xmlns:xlink="http://www.w3.org/1999/xlink" x="0px" y="0px"
	 viewBox="0 0 512 512" style="enable-background:new 0 0 512 512;" xml:space="preserve">
<g>
	<g>
		<path d="M214.672,192.496V96.4h-16v96.096h-39.136l47.136,67.664l47.12-67.664H214.672z M190.192,208.48h32.96l-16.48,23.664
			L190.192,208.48z"/>
	</g>
</g>
<g>
	<g>
		<path d="M304.096,205.184l-47.12,67.648h39.12v96.112h16v-96.112h39.136L304.096,205.184z M287.616,256.848l16.48-23.648
			l16.48,23.648H287.616z"/>
	</g>
</g>
<g>
	<g>
		<path d="M361.776,0H150.224C129.136,0,112,17.504,112,39.008v434C112,494.512,129.136,512,150.224,512h211.568
			C382.864,512,400,494.512,400,473.008v-434C400,17.504,382.864,0,361.776,0z M384,473.008c0,12.688-9.968,22.992-22.224,22.992
			H150.224C137.968,496,128,485.696,128,473.008V424h256V473.008z M384,408H128V56h256V408z M384,40H128v-0.992
			C128,26.32,137.968,16,150.224,16h211.568C374.032,16,384,26.32,384,39.008V40z"/>
	</g>
</g>
<g>
	<g>
		<path d="M256,433.168c-14.704,0-26.672,11.968-26.672,26.672c0,14.704,11.968,26.656,26.672,26.656
			c14.704,0,26.672-11.952,26.672-26.656C282.672,445.136,270.704,433.168,256,433.168z M256,470.496
			c-5.888,0-10.672-4.784-10.672-10.656c0-5.904,4.784-10.672,10.672-10.672s10.672,4.784,10.672,10.672
			C266.672,465.712,261.888,470.496,256,470.496z"/>
	</g>
</g>
<g>
</g>
<g>
</g>
<g>
</g>
<g>
</g>
<g>
</g>
<g>
</g>
<g>
</g>
<g>
</g>
<g>
</g>
<g>
</g>
<g>
</g>
<g>
</g>
<g>
</g>
<g>
</g>
<g>
</g>
</svg>
