<svg id="Layer_1" data-name="Layer 1" xmlns="http://www.w3.org/2000/svg" viewBox="0 0 512 512"><title>url</title><path d="M512,371.31V19.14H0V371.31H248V476.86H158.08v16H353.92v-16H264V371.31Zm-496-16V35.14H496V355.31Z"/><path d="M385.65,113.7A50.58,50.58,0,0,0,315,102.3L279.47,128a50.6,50.6,0,0,0-17.53,59.39l-20.33,13.72a50.61,50.61,0,0,0-65.51-5.36l-35.56,25.68a50.59,50.59,0,1,0,59.23,82l35.56-25.68A50.61,50.61,0,0,0,253,218.6l20.42-13.78A50.59,50.59,0,0,0,338.69,210l35.57-25.68a50.6,50.6,0,0,0,11.39-70.63Zm-162.28,147-36.05,26a29.73,29.73,0,1,1-34.82-48.21l36.05-26A29.74,29.74,0,0,1,224,213l-17.2,11.6a10.43,10.43,0,0,0,11.67,17.29l16.59-11.2A29.72,29.72,0,0,1,223.37,260.67Zm138.92-93.42-36.05,26A29.74,29.74,0,0,1,291,193l14.78-10a10.43,10.43,0,0,0-11.66-17.29l-14.34,9.68a29.74,29.74,0,0,1,11.68-30.3l36.05-26a29.75,29.75,0,0,1,41.52,6.7h0A29.74,29.74,0,0,1,362.29,167.25Z"/></svg>