<?xml version="1.0" encoding="iso-8859-1"?>
<!-- Generator: Adobe Illustrator 19.0.0, SVG Export Plug-In . SVG Version: 6.00 Build 0)  -->
<svg version="1.1" id="Layer_1" xmlns="http://www.w3.org/2000/svg" xmlns:xlink="http://www.w3.org/1999/xlink" x="0px" y="0px"
	 viewBox="0 0 232 232" style="enable-background:new 0 0 232 232;" xml:space="preserve">
<g>
	<g>
		<g>
			<path d="M136,140v64h96v-64H136z M224,196h-80v-48h80V196z"/>
			<rect x="168" y="208" width="32" height="8"/>
			<path d="M0,204h96v-64H0V204z M8,148h80v48H8V148z"/>
			<rect x="32" y="208" width="32" height="8"/>
			<path d="M164,16H68v64h96V16z M156,72H76V24h80V72z"/>
			<rect x="100" y="84" width="32" height="8"/>
			<polygon points="52,124 180,124 180,136 188,136 188,124 188,122 188,116 120,116 120,96 112,96 112,116 44,116 44,122 44,124 
				44,136 52,136 			"/>
		</g>
	</g>
</g>
<g>
</g>
<g>
</g>
<g>
</g>
<g>
</g>
<g>
</g>
<g>
</g>
<g>
</g>
<g>
</g>
<g>
</g>
<g>
</g>
<g>
</g>
<g>
</g>
<g>
</g>
<g>
</g>
<g>
</g>
</svg>
