<svg id="Layer_1" data-name="Layer 1" xmlns="http://www.w3.org/2000/svg" viewBox="0 0 483.2 137.06"><title>logoNew</title><path d="M97.26,85.57S96.59,119,67.52,129.85c0,0,17.43,26.54,36.41,22.68,19.95-4.05,27.54-21.91,29.67-30.42C136,112.65,130.05,89.4,97.26,85.57Z" transform="translate(-27.57 -15.86)" style="fill:#00acc1"/><path d="M94.91,85.55s-33.47-.68-44.28-29.74c0,0-26.53,17.43-22.68,36.41,4.06,19.94,21.91,27.53,30.43,29.66C67.84,124.25,91.08,118.34,94.91,85.55Z" transform="translate(-27.57 -15.86)" style="fill:#00acc1"/><path d="M94.93,83.2s.68-33.47,29.75-44.28c0,0-17.44-26.54-36.42-22.68-20,4.06-27.53,21.91-29.66,30.43C56.23,56.13,62.15,79.37,94.93,83.2Z" transform="translate(-27.57 -15.86)" style="fill:#00acc1"/><path d="M97.66,83.35S131.13,84,142,113.1c0,0,26.53-17.44,22.67-36.42-4.06-20-21.92-27.53-30.42-29.67C124.73,44.65,101.49,50.56,97.66,83.35Z" transform="translate(-27.57 -15.86)" style="fill:#00acc1"/><path d="M260.36,103.77l-29.16,0v-7l23.07.12a12.17,12.17,0,0,0,0-24.34l-.43,0-22.64,0V65.23h29.16a12.17,12.17,0,0,0,0-24.33l-42.35,0a12.15,12.15,0,0,0-11.38,11.7s-.15,62.77-.15,63.34a12.17,12.17,0,0,0,12.17,12.17l41.71,0h0a12.17,12.17,0,0,0,0-24.33Z" transform="translate(-27.57 -15.86)" style="fill:#00acc1"/><path d="M429.69,28.27h0a12.17,12.17,0,0,0-24.34.21c0,.13,0,36.31,0,36.31h-20.9s0-36.18,0-36.31a12.16,12.16,0,0,0-24.32-.21V77.36a12.15,12.15,0,0,0,12.14,11.79l33.05,0V116a12.17,12.17,0,0,0,24.34,0S429.69,28.27,429.69,28.27Z" transform="translate(-27.57 -15.86)" style="fill:#cfd8dc"/><path d="M338.81,103.81H315.25l34.86-43.6a12.15,12.15,0,0,0-8.89-19.35v0H293.81a12.16,12.16,0,0,0,0,24.31H319l-35.28,44.19a12.15,12.15,0,0,0,10.06,18.8h45a12.17,12.17,0,1,0,0-24.34Z" transform="translate(-27.57 -15.86)" style="fill:#00acc1"/><path d="M510.77,50.87a12.16,12.16,0,0,0-24.28-1.06h0l.19,43.27a11.4,11.4,0,0,1-22.79-.3V50.58h0a12.16,12.16,0,0,0-24.31,0h0l.06,42.5a35.57,35.57,0,0,0,71.13-.51S510.77,51.3,510.77,50.87Z" transform="translate(-27.57 -15.86)" style="fill:#00acc1"/></svg>